<?xml version="1.0" encoding="UTF-8" standalone="no"?>
<svg width="100%" height="100%" viewBox="0 0 14044 9934" xmlns="http://www.w3.org/2000/svg" style="fill-rule:evenodd;clip-rule:evenodd;stroke-linecap:round;stroke-linejoin:round;stroke-miterlimit:2;">
<g id="A-WALLS" transform="matrix(0.005,0,0,0.005,2854.65,8074.54)">
        <path d="M1200,-489000L122400,-489000L122400,-498000L162000,-498000L162000,-549600L1200,-549600L1200,-489000Z" style="fill:none;stroke:rgb(255,0,0);stroke-width:590.55px;" />
        <path d="M166800,-536400L166800,-550800" style="fill:none;stroke:rgb(255,0,0);stroke-width:590.55px;" />
        <path d="M195600,-536400L166800,-536400" style="fill:none;stroke:rgb(255,0,0);stroke-width:590.55px;" />
        <path d="M166800,-550800L0,-550800" style="fill:none;stroke:rgb(255,0,0);stroke-width:590.55px;" />
        <path d="M195600,-519000L195600,-536400" style="fill:none;stroke:rgb(255,0,0);stroke-width:590.55px;" />
        <path d="M0,-351273L0,-550800" style="fill:none;stroke:rgb(255,0,0);stroke-width:590.55px;" />
        <path d="M0,-487800L123600,-487800L123600,-496800L163200,-496800L163200,-550800L0,-550800L0,-487800Z" style="fill:none;stroke:rgb(255,0,0);stroke-width:590.55px;" />
    </g>
<g id="CAFM_BLDG_OTLN" transform="matrix(0.005,0,0,0.005,2854.65,8074.54)">
        <path d="M195600,-536400L166800,-536400L166800,-550800L0,-550800L0,-274800L266400,-274800L266400,-382500L195600,-382500L195600,-536400Z" style="fill:none;stroke:rgb(255,223,127);stroke-width:590.55px;" />
        <path d="M1.614e+06,-399600L1.614e+06,-385200L1.5804e+06,-385200L1.5804e+06,-298800L1.6668e+06,-298800L1.6668e+06,-385200L1.6332e+06,-385200L1.6332e+06,-399600L1.614e+06,-399600Z" style="fill:none;stroke:rgb(255,223,127);stroke-width:590.55px;" />
        <path d="M195600,-536400L166800,-536400L166800,-550800L0,-550800L0,-274800L266400,-274800L266400,-382500L195600,-382500L195600,-536400Z" style="fill:none;stroke:rgb(255,223,127);stroke-width:590.55px;" />
        <path d="M382800,-983400L381600,-983400L381600,-520800L385200,-520800L385200,-524400L486000,-524400L486000,-520800L489600,-520800L489600,-976800L472800,-976800L472800,-1.0704e+06L381600,-1.0704e+06L381600,-1.0644e+06L382800,-1.0644e+06L382800,-983400Z" style="fill:none;stroke:rgb(255,223,127);stroke-width:590.55px;" />
        <path d="M340800,-1.2432e+06L340800,-1.0992e+06L556800,-1.0992e+06L556800,-1.1034e+06L596400,-1.1034e+06L596400,-1.2432e+06L340800,-1.2432e+06Z" style="fill:none;stroke:rgb(255,223,127);stroke-width:590.55px;" />
        <path d="M657600,-1.0662e+06L659250,-1.0662e+06L659250,-529800L657600,-529800L657600,-525000L765600,-525000L765600,-1.071e+06L657600,-1.071e+06L657600,-1.0662e+06Z" style="fill:none;stroke:rgb(255,223,127);stroke-width:590.55px;" />
        <path d="M1.4646e+06,-187200L1.4646e+06,-247200L1.419e+06,-247200L1.419e+06,-280800L1.1826e+06,-280800L1.1826e+06,-320400L1.1262e+06,-320400L1.1262e+06,-525000L1.179e+06,-525000L1.179e+06,-1.071e+06L934200,-1.071e+06L934200,-489000L489600,-489000L489600,-495600L486000,-495600L486000,-489000L385200,-489000L385200,-495600L381600,-495600L381600,-381000L924402,-381000L924402,-352800L885600,-352800L885600,-316800L895350,-316800L895350,-256425L876900,-256425L876900,-202200L858300,-202200L858300,-140400L511800,-140400L511800,-103200L490200,-103200L490200,-0L1.0398e+06,-0L1.0398e+06,-48000L1.161e+06,-48000L1.161e+06,-136800L1.518e+06,-136800L1.518e+06,-199800L1.4904e+06,-199800L1.4904e+06,-187200L1.4646e+06,-187200Z" style="fill:none;stroke:rgb(255,223,127);stroke-width:590.55px;" />
    </g>
<g id="CAFM_SPACE" transform="matrix(0.005,0,0,0.005,2854.65,8074.54)">
        <path d="M1200,-549600L162000,-549600L162000,-498000L122400,-498000L122400,-489000L1200,-489000L1200,-549600Z" style="fill:none;stroke:rgb(0,0,255);stroke-width:590.55px;" />
    </g>
</svg>
